<svg width="530" height="530" viewBox="0 0 530 530" fill="none" xmlns="http://www.w3.org/2000/svg">
<rect width="530" height="530" fill="#00615C"/>
<path d="M264.168 499.429C223.007 499.429 187.912 492.588 158.883 478.907C130.287 465.226 107.107 447.056 89.3427 424.397C71.5786 401.31 58.5804 375.872 50.3483 348.083C42.1161 320.293 38 292.504 38 264.714C38 237.78 42.5494 210.632 51.6481 183.27C61.1801 155.48 75.2614 130.042 93.8921 106.956C112.956 83.8689 136.786 65.2713 165.382 51.1628C193.978 37.0543 227.556 30 266.118 30C305.545 30 339.557 37.0543 368.153 51.1628C396.749 65.2713 420.146 84.0826 438.343 107.597C456.541 130.683 469.972 155.908 478.638 183.27C487.736 210.632 492.286 237.78 492.286 264.714C492.286 291.221 487.52 318.156 477.988 345.518C468.889 372.88 454.808 398.318 435.744 421.832C417.113 444.918 393.5 463.73 364.904 478.266C336.308 492.374 302.729 499.429 264.168 499.429ZM271.317 452.614C293.847 452.614 312.694 447.27 327.859 436.582C343.023 425.466 355.155 411.144 364.254 393.615C373.353 376.086 379.852 357.061 383.751 336.539C387.65 315.59 389.6 295.283 389.6 275.616C389.6 246.117 387.001 219.182 381.801 194.813C376.602 170.444 368.587 149.495 357.755 131.966C346.923 114.01 333.058 100.329 316.161 90.9231C299.696 81.0899 280.199 76.3871 257.669 76.8146C235.572 77.2421 216.941 83.2275 201.777 94.7709C186.612 105.887 174.481 120.423 165.382 138.379C156.283 155.908 149.784 175.147 145.885 196.096C141.985 217.045 140.036 237.352 140.036 257.019C140.036 277.113 142.202 298.489 146.535 321.148C151.301 343.807 158.666 365.184 168.632 385.278C178.597 405.372 192.028 421.618 208.926 434.016C225.823 446.415 246.62 452.614 271.317 452.614Z" fill="#DEDEDE"/>
</svg>
